# xmcd
#
# Track frame offsets: 
#        150
#        19345
#        32841
#        46048
#        59569
#        69960
#        80615
#        95694
#        98869
#        109193
#        124852
#        142862
#        166183
#        179580
#        190024
#        199520
#        216025
#        225538
#        234009
#        243514
#        255944
#        269496
#        286744
#        300958
#        313210
#        325683
#
# Disc length: 4472 seconds
#
# Revision: 1
# Processed by: cddbd v1.5.2PL0 Copyright (c) Steve Scherf et al.
# Submitted via: ExactAudioCopy v1.3
#
DISCID=5d11761a
DTITLE=Various Artist - Louisiana Hayride CD 16 (Live Mar-May 1960)
DYEAR=2017
DGENRE=Country
TTITLE0=James O'Gwynn - (house band intro) Wishful Thinking
TTITLE1=The Gays - Party Doll
TTITLE2=Joe Janka - Who'll Be The First
TTITLE3=James O'Gwynn - That's All I Got From You
TTITLE4=The Chimes - Streamlined Cannonball
TTITLE5=Tony Douglas - The Same Two Lips
TTITLE6=Jerry Jericho - Among Your Souvenirs
TTITLE7=theme and intro
TTITLE8=The Hooper Twins - You're Not The Same Anymore
TTITLE9=Wilma Lee and Stoney Cooper - Big Midnight Special
TTITLE10=Elsie Holly - The One You Slip Around With
TTITLE11=Bill Carlisle - Same Old Tale The Crow Told Me
TTITLE12=Bill Carlisle - No Help Wanted
TTITLE13=Dee Mullin - Just One Time
TTITLE14=Ken Marvin - Uh Huh Honey
TTITLE15=Grandpa Jones - Mountain Dew
TTITLE16=Dobber Johnson - (theme and cast) Cotton Eyed Joe
TTITLE17=Bob Luman - I'm Walkin'
TTITLE18=Bob Luman - Lonely Weekends
TTITLE19=Elsie Holly - May You Never Be Alone
TTITLE20=Jerry Jericho - Gotta Travel On
TTITLE21=The Bennett Brothers - Head Over Heels In Love With You
TTITLE22=The Bennett Brothers - Earl's Breakdown
TTITLE23=Tony Douglas - (intro and theme) Baby When The Sun Goes Down
TTITLE24=Bob Shelton and The Jones Junction Gang - Tater Pie
TTITLE25=Slim and Mallie Ann Harbert - I Didn't Know The Gun Was Loade
TTITLE25=d
EXTD=
EXTT0=
EXTT1=
EXTT2=
EXTT3=
EXTT4=
EXTT5=
EXTT6=
EXTT7=
EXTT8=
EXTT9=
EXTT10=
EXTT11=
EXTT12=
EXTT13=
EXTT14=
EXTT15=
EXTT16=
EXTT17=
EXTT18=
EXTT19=
EXTT20=
EXTT21=
EXTT22=
EXTT23=
EXTT24=
EXTT25=
PLAYORDER=
